<!DOCTYPE svg PUBLIC "-//W3C//DTD SVG 1.1//EN" "http://www.w3.org/Graphics/SVG/1.1/DTD/svg11.dtd">
<!-- Uploaded to: SVG Repo, www.svgrepo.com, Transformed by: SVG Repo Mixer Tools -->
<svg height="800px" width="800px" version="1.1" id="Layer_1" xmlns="http://www.w3.org/2000/svg" xmlns:xlink="http://www.w3.org/1999/xlink" viewBox="0 0 512 512" xml:space="preserve" fill="#000000">
<g id="SVGRepo_bgCarrier" stroke-width="0"/>
<g id="SVGRepo_tracerCarrier" stroke-linecap="round" stroke-linejoin="round"/>
<g id="SVGRepo_iconCarrier"> <g> <path style="fill:#000000;" d="M479.066,512c-8.267,0-14.971-6.704-14.971-14.971V281.447H47.907v215.583 c0,8.267-6.702,14.971-14.971,14.971s-14.971-6.704-14.971-14.971V266.476c0-8.267,6.702-14.971,14.971-14.971h446.13 c8.267,0,14.971,6.704,14.971,14.971v230.553C494.037,505.296,487.333,512,479.066,512z"/> <path style="fill:#000000;" d="M488.794,29.942H375.841c-8.267,0-14.971-6.704-14.971-14.971S367.574,0,375.841,0h112.953 c8.267,0,14.971,6.704,14.971,14.971S497.061,29.942,488.794,29.942z"/> <path style="fill:#000000;" d="M297.921,29.942H23.206c-8.268,0-14.971-6.704-14.971-14.971S14.938,0,23.206,0h274.714 c8.267,0,14.971,6.704,14.971,14.971S306.189,29.942,297.921,29.942z"/> </g> <circle style="fill:#000000;" cx="136.159" cy="155.816" r="14.92"/> <path style="fill:#000000;" d="M136.159,185.702c-16.481,0-29.891-13.409-29.891-29.891s13.409-29.891,29.891-29.891 s29.891,13.409,29.891,29.891S152.641,185.702,136.159,185.702z"/> <path style="fill:#000000;" d="M207.548,151.615c0.284-2.596,0.442-5.229,0.442-7.9c0-39.671-32.159-71.83-71.83-71.83 s-71.83,32.159-71.83,71.83c0,2.671,0.157,5.304,0.442,7.9H207.548z"/> <g> <path style="fill:#000000;" d="M207.548,166.586H64.771c-7.64,0-14.052-5.752-14.882-13.343c-0.35-3.214-0.53-6.419-0.53-9.526 c0-47.863,38.938-86.801,86.799-86.801s86.801,38.939,86.801,86.801c0,3.109-0.178,6.316-0.53,9.529 C221.598,160.839,215.186,166.586,207.548,166.586z M79.739,136.645h112.842c-3.493-28.028-27.464-49.788-56.422-49.788 C107.201,86.858,83.23,108.618,79.739,136.645z"/> <path style="fill:#000000;" d="M136.159,84.92c-8.268,0-14.971-6.704-14.971-14.971V21.277c0-8.267,6.702-14.971,14.971-14.971 c8.268,0,14.971,6.704,14.971,14.971V69.95C151.13,78.216,144.428,84.92,136.159,84.92z"/> </g> <circle style="fill:#000000;" cx="375.842" cy="155.816" r="14.92"/> <path style="fill:#000000;" d="M375.839,185.702c-16.481,0-29.891-13.409-29.891-29.891s13.409-29.891,29.891-29.891 c16.483,0,29.892,13.409,29.892,29.891S392.322,185.702,375.839,185.702z"/> <path style="fill:#000000;" d="M447.229,151.615c0.284-2.596,0.442-5.229,0.442-7.9c0-39.671-32.159-71.83-71.83-71.83 s-71.83,32.159-71.83,71.83c0,2.671,0.157,5.304,0.442,7.9H447.229z"/> <g> <path style="fill:#000000;" d="M447.229,166.586H304.452c-7.64,0-14.053-5.752-14.881-13.343c-0.352-3.219-0.53-6.424-0.53-9.526 c0-47.863,38.939-86.801,86.799-86.801c47.863,0,86.801,38.939,86.801,86.801c0,3.102-0.178,6.307-0.53,9.526 C461.282,160.836,454.867,166.586,447.229,166.586z M319.419,136.645h112.844c-3.493-28.028-27.464-49.788-56.422-49.788 C346.883,86.858,322.911,108.618,319.419,136.645z"/> <path style="fill:#000000;" d="M375.839,84.92c-8.267,0-14.971-6.704-14.971-14.971V15.288c0-8.267,6.704-14.971,14.971-14.971 s14.971,6.704,14.971,14.971V69.95C390.81,78.216,384.107,84.92,375.839,84.92z"/> </g> <path style="fill:#000000;" d="M197.083,393.717h-64.978c-15.956,0-28.891-12.935-28.891-28.891l0,0 c0-15.956,12.935-28.891,28.891-28.891h64.978c15.956,0,28.891,12.935,28.891,28.891l0,0 C225.974,380.782,213.039,393.717,197.083,393.717z"/> <g> <path style="fill:#000000;" d="M197.083,408.688h-64.978c-24.185,0-43.86-19.676-43.86-43.861s19.676-43.861,43.86-43.861h64.978 c24.185,0,43.861,19.676,43.861,43.861S221.268,408.688,197.083,408.688z M132.105,350.908c-7.674,0-13.918,6.244-13.918,13.92 s6.244,13.92,13.918,13.92h64.978c7.676,0,13.92-6.244,13.92-13.92s-6.244-13.92-13.92-13.92H132.105z"/> <path style="fill:#000000;" d="M164.594,512c-8.268,0-14.971-6.704-14.971-14.971V395.231c0-8.267,6.702-14.971,14.971-14.971 c8.268,0,14.971,6.704,14.971,14.971v101.798C179.564,505.296,172.862,512,164.594,512z"/> <path style="fill:#000000;" d="M209.006,512h-88.825c-8.268,0-14.971-6.704-14.971-14.971s6.702-14.971,14.971-14.971h88.825 c8.268,0,14.971,6.704,14.971,14.971S217.274,512,209.006,512z"/> </g> <path style="fill:#000000;" d="M382.907,393.717h-64.979c-15.956,0-28.891-12.935-28.891-28.891l0,0 c0-15.956,12.935-28.891,28.891-28.891h64.979c15.956,0,28.891,12.935,28.891,28.891l0,0 C411.796,380.782,398.863,393.717,382.907,393.717z"/> <g> <path style="fill:#000000;" d="M382.907,408.688h-64.978c-24.185,0-43.861-19.676-43.861-43.861s19.676-43.861,43.861-43.861 h64.978c24.184,0,43.86,19.676,43.86,43.861S407.091,408.688,382.907,408.688z M317.929,350.908c-7.676,0-13.92,6.244-13.92,13.92 s6.244,13.92,13.92,13.92h64.978c7.674,0,13.918-6.244,13.918-13.92s-6.244-13.92-13.918-13.92H317.929z"/> <path style="fill:#000000;" d="M350.417,512c-8.267,0-14.971-6.704-14.971-14.971V395.231c0-8.267,6.704-14.971,14.971-14.971 c8.267,0,14.971,6.704,14.971,14.971v101.798C365.388,505.296,358.684,512,350.417,512z"/> <path style="fill:#000000;" d="M394.83,512h-88.825c-8.267,0-14.971-6.704-14.971-14.971s6.704-14.971,14.971-14.971h88.825 c8.267,0,14.971,6.704,14.971,14.971S403.096,512,394.83,512z"/> </g> </g>
</svg>