<?xml version="1.0" encoding="utf-8"?>

<!DOCTYPE svg PUBLIC "-//W3C//DTD SVG 1.1//EN" "http://www.w3.org/Graphics/SVG/1.1/DTD/svg11.dtd">
<!-- Uploaded to: SVG Repo, www.svgrepo.com, Generator: SVG Repo Mixer Tools -->
<svg height="800px" width="800px" version="1.1" id="_x32_" xmlns="http://www.w3.org/2000/svg" xmlns:xlink="http://www.w3.org/1999/xlink" 
	 viewBox="0 0 512 512"  xml:space="preserve">
<style type="text/css">
	.st0{fill:#000000;}
</style>
<g>
	<path class="st0" d="M293.176,212.127c10.723-4.479,21.592-9.006,32.167-13.411c1.602-29.143-9.087-53.529-3.743-95.895
		c3.351-26.601,15.021-40.919,26.561-48.168c-10.134-0.899-30.647-1.61-54.755,3.514c-13.386,15.43-21.003,37.086-20.35,64.954
		c0.556,23.243,20.284,55.123,20.153,79.534C293.208,205.899,293.193,209.045,293.176,212.127z"/>
	<path class="st0" d="M227.814,226.689c0.638,3.939,1.112,8.238,1.455,12.504c3.939-2.002,8.042-3.922,12.324-5.687
		c6.014-2.469,12.52-5.165,19.352-8.001c0.033-5.712,0.066-11.915,0.081-17.579c0.082-16.271-3.546-29.698-10.133-67.471
		c-5.263-30.091,1.079-55.303,11.817-72.726c-14.53,5.132-32.591,11.94-51.584,19.696c-7.993,13.427-14.041,31.856-9.579,60.034
		C205.291,171.166,225.248,210.68,227.814,226.689z"/>
	<path class="st0" d="M137.852,307.539c8.516-0.041,17.064-2.795,24.076-8.564c0,0,0.327-0.54,0.85-1.332
		c4.266,3.964,8.401,7.789,12.144,11.221c5.083,4.65,9.545,8.663,13.092,11.777c1.798,1.552,3.35,2.86,4.674,3.964
		c1.389,1.111,2.387,1.904,3.711,2.77c3.253,2.027,7.764,5.076,13.436,7.674c5.687,2.608,12.699,4.757,20.79,4.79
		c6.358,0.041,13.305-1.267,20.48-4.299l0.082-0.024l118.123-52.818c7.748-3.244,14.024-6.268,19.303-9.684
		c3.972-2.591,7.437-5.419,10.265-8.77c4.299-4.993,6.816-11.024,8.008-17.137c1.226-6.163,1.423-12.545,1.471-20.007
		c0.017-4.65-0.032-9.733-0.032-15.405l0.016-45.97c14.367-2.786,36.694-0.833,36.694-0.833c7.6-0.368,14.269-5.222,16.966-12.349
		c2.68-7.102,0.899-15.16-4.577-20.464L393.32,69.935c-8.924-8.647-17.914-11.474-31.872-13.591
		c-7.028,6.84-11.752,17.75-15.02,38.836c-3.612,23.299,3.285,63.025,6.096,92.266c13.943-5.786,26.348-10.885,35.599-14.587
		l-0.016,38.826c-0.017,5.819,0.049,10.918,0.032,15.315c-0.032,6.301-0.245,11.213-0.833,14.825c-0.458,2.73-1.063,4.69-1.847,6.3
		c-1.193,2.37-2.812,4.373-6.538,7.036c-3.71,2.608-9.43,5.582-17.636,8.974l-0.115,0.049l-117.943,52.736
		c-4.87,2.027-8.908,2.689-12.52,2.689c-4.577-0.024-8.581-1.177-12.488-2.958c-3.857-1.765-7.453-4.102-11-6.366
		c-0.115-0.074-0.998-0.744-2.125-1.659c-4.348-3.596-12.962-11.368-23.128-20.758c-2.174-2.01-4.528-4.217-6.816-6.342
		c6.816-7.804,16.346-17.293,28.604-26.413c0.425-4.381,0.556-8.565-0.016-11.646c-4.315-24.011-13.109-46.28-22.719-80.114
		c-6.816-23.953-2.124-47.334,4.79-65.273c-16.541,7.2-32.788,14.768-47.008,22.196c-21.428,44.131-15.953,95.6-6.98,124.237
		C138.702,266.546,140.402,290.434,137.852,307.539z"/>
	<path class="st0" d="M111.063,296.891c0.098,0.098,0.212,0.163,0.31,0.261c1.471-11.082,1.03-30.425-5.818-68.264
		c-8.009-44.188,0.931-75.308,11.491-96.279c-41.974,26.119-60.248,52.459-60.248,52.459c-9.398,16.058-11.294,22.016-11.735,32.886
		c-0.458,10.885,1.602,16.508,9.399,24.084L111.063,296.891z"/>
	<path class="st0" d="M8.712,404.357l494.592-0.63c4.805,0,8.679-3.89,8.679-8.679v-18.086c0-2.353-0.948-4.61-2.648-6.244
		c-1.7-1.642-3.988-2.516-6.325-2.435L8.385,385.413C3.711,385.585,0,389.418,0,394.093v1.577c0,2.312,0.932,4.519,2.55,6.146
		C4.184,403.45,6.391,404.357,8.712,404.357z"/>
	<path class="st0" d="M503.321,422.532l-494.609-0.63c-2.304,0-4.511,0.916-6.146,2.542c-1.634,1.634-2.55,3.84-2.55,6.154v1.569
		c0,4.675,3.71,8.516,8.384,8.679l494.61,17.13c2.353,0.082,4.641-0.793,6.342-2.427c1.683-1.642,2.648-3.89,2.648-6.252v-18.078
		C512,426.423,508.11,422.532,503.321,422.532z"/>
</g>
</svg>