<?xml version="1.0" encoding="UTF-8" standalone="no"?>
<!-- Uploaded to: SVG Repo, www.svgrepo.com, Generator: SVG Repo Mixer Tools -->

<svg
   height="572.65161"
   width="804.75623"
   version="1.1"
   id="_x32_"
   viewBox="0 0 515.04399 366.49703"
   xml:space="preserve"
   sodipodi:docname="icon-sushi.svg"
   inkscape:version="1.3.2 (091e20e, 2023-11-25, custom)"
   xmlns:inkscape="http://www.inkscape.org/namespaces/inkscape"
   xmlns:sodipodi="http://sodipodi.sourceforge.net/DTD/sodipodi-0.dtd"
   xmlns="http://www.w3.org/2000/svg"
   xmlns:svg="http://www.w3.org/2000/svg"><defs
   id="defs4" /><sodipodi:namedview
   id="namedview4"
   pagecolor="#ffffff"
   bordercolor="#000000"
   borderopacity="0.25"
   inkscape:showpageshadow="2"
   inkscape:pageopacity="0.0"
   inkscape:pagecheckerboard="0"
   inkscape:deskcolor="#d1d1d1"
   inkscape:zoom="0.743346"
   inkscape:cx="550.21484"
   inkscape:cy="438.55755"
   inkscape:window-width="1920"
   inkscape:window-height="1046"
   inkscape:window-x="-11"
   inkscape:window-y="-11"
   inkscape:window-maximized="1"
   inkscape:current-layer="g4" />
<style
   type="text/css"
   id="style1">
	.st0{fill:#000000;}
</style>
<g
   id="g4"
   transform="translate(0.60879905,-113.84542)">
	<path
   class="st0"
   d="m 8.712,409.016 494.592,-0.63 c 4.805,0 8.679,-3.89 8.679,-8.679 v -18.086 c 0,-2.353 -0.948,-4.61 -2.648,-6.244 -1.7,-1.643 -3.988,-2.516 -6.325,-2.435 L 8.385,390.072 C 3.711,390.244 0,394.077 0,398.751 v 1.578 c 0,2.312 0.932,4.519 2.55,6.146 1.634,1.634 3.841,2.541 6.162,2.541 z"
   id="path1" />
	<path
   class="st0"
   d="M 503.321,427.191 8.712,426.562 c -2.304,0 -4.511,0.916 -6.146,2.542 -1.634,1.634 -2.55,3.84 -2.55,6.153 v 1.569 c 0,4.675 3.71,8.516 8.384,8.679 l 494.61,17.129 c 2.353,0.082 4.642,-0.792 6.342,-2.427 1.683,-1.643 2.648,-3.89 2.648,-6.252 v -18.078 c 0,-4.795 -3.89,-8.686 -8.679,-8.686 z"
   id="path2" />
	
	<path
   class="st0"
   d="m 297.982,122.59 c -10.33,2.664 -80.924,33.719 -121.393,50.571 -40.469,16.859 -54.526,45.242 -54.526,45.242 -7.012,12.079 -8.401,16.566 -8.696,24.722 -0.294,8.164 1.259,12.381 7.142,18.028 l 42.66,40.952 c 10.526,10.092 26.936,10.697 38.181,1.381 0,0 0.228,-0.4 0.621,-0.997 3.22,2.958 6.326,5.81 9.154,8.368 3.824,3.465 7.191,6.472 9.872,8.794 1.34,1.152 2.517,2.149 3.515,2.95 1.046,0.834 1.798,1.438 2.811,2.076 2.435,1.504 5.819,3.784 10.101,5.713 4.266,1.928 9.529,3.522 15.593,3.514 4.789,0.008 9.987,-0.989 15.364,-3.285 l 0.065,-0.033 88.425,-40.052 c 5.802,-2.452 10.509,-4.748 14.448,-7.331 2.975,-1.953 5.558,-4.095 7.682,-6.612 3.204,-3.775 5.067,-8.295 5.949,-12.888 0.883,-4.634 1.014,-9.414 1.03,-15.021 0,-3.49 -0.065,-7.298 -0.082,-11.556 l -0.163,-34.495 c 10.771,-2.142 27.541,-0.752 27.541,-0.752 5.704,-0.302 10.69,-3.972 12.683,-9.317 1.994,-5.352 0.622,-11.384 -3.514,-15.348 L 374.13,130.828 c -7.715,-7.413 -15.462,-9.08 -28.849,-10.738 0.002,0 -21.18,-4.25 -47.299,2.5 z m 72.62,85.467 0.13,29.134 c 0,4.364 0.065,8.19 0.065,11.491 0.017,4.723 -0.13,8.41 -0.556,11.123 -0.343,2.051 -0.784,3.522 -1.372,4.74 -0.9,1.782 -2.092,3.285 -4.887,5.304 -2.762,1.962 -7.045,4.208 -13.19,6.782 l -0.082,0.041 -88.31,39.987 c -3.645,1.536 -6.669,2.06 -9.382,2.068 -3.432,0 -6.44,-0.858 -9.365,-2.174 -2.926,-1.307 -5.623,-3.064 -8.288,-4.74 -0.081,-0.048 -0.751,-0.539 -1.602,-1.242 -3.269,-2.68 -9.758,-8.483 -17.439,-15.487 -1.618,-1.496 -3.4,-3.147 -5.132,-4.732 9.463,-10.96 25.841,-26.323 49.704,-36.269 32.787,-13.663 85.516,-36.186 109.706,-46.026 z"
   id="path4" />
</g>
</svg>
