<?xml version="1.0" encoding="UTF-8"?>
<svg width="481px" height="161px" viewBox="0 0 481 161" version="1.1" xmlns="http://www.w3.org/2000/svg" xmlns:xlink="http://www.w3.org/1999/xlink">
    <!-- Generator: Sketch 46 (44423) - http://www.bohemiancoding.com/sketch -->
    <title>logo-sagi copy</title>
    <desc>Created with Sketch.</desc>
    <defs></defs>
    <g id="Page-1" stroke="none" stroke-width="1" fill="none" fill-rule="evenodd">
        <g id="logo-sagi-copy" fill="#FF6600">
            <g id="logo-sagi">
                <path d="M134.593,0.89 C135.135,0.89 135.677,0.89 136.22,0.89 C136.852,15.173 136.311,30.629 136.491,45.365 C121.465,50.694 107.782,56.943 100.152,70.314 C96.298,77.067 94.503,85.091 92.016,92.823 C84.565,115.996 73.146,135.656 52.152,144.89 C38.814,150.757 19.395,155.619 0.898,150.585 C0.898,137.115 0.898,123.647 0.898,110.178 C19.987,110.228 33.828,102.957 42.119,91.195 C50.92,78.708 52.236,61.247 59.203,47.263 C65.905,33.811 76.094,23.41 88.763,16.076 C101.608,8.64 115.436,1.776 134.593,0.89 Z" id="Shape"></path>
                <path d="M295.406,157.365 C282.299,157.365 269.192,157.365 256.085,157.365 C256.085,153.478 256.085,149.591 256.085,145.704 C246.038,150.333 235.189,154.992 222.187,156.01 C207.903,157.126 194.946,154.457 183.95,150.043 C163.231,141.727 147.05,126.103 139.475,105.026 C129.911,78.414 137.501,52.495 150.322,35.602 C163.164,18.682 183.206,5.806 209.17,4.144 C229.304,2.855 245.528,8.327 257.712,15.534 C275.59,26.109 290.539,44.374 294.322,68.958 C295.656,77.631 295.135,87.375 295.135,97.975 C295.136,117.316 295.678,137.473 295.406,157.365 Z M182.593,52.958 C176.57,59.652 170.719,69.941 171.745,83.06 C172.718,95.507 178.387,103.832 185.576,110.179 C192.757,116.52 202.556,121.367 215.407,121.298 C239.263,121.169 260.615,102.836 258.254,76.009 C257.38,66.076 251.637,56.505 245.508,50.789 C237.4,43.225 225.634,38.01 210.526,39.399 C198.35,40.519 188.607,46.273 182.593,52.958 Z" id="Shape"></path>
                <path d="M389.237,6.585 C389.237,17.975 389.237,29.365 389.237,40.754 C376.633,41.388 367.537,46.365 359.949,52.958 C352.788,59.179 346.384,67.765 345.576,79.805 C345.092,87.026 346.437,93.755 348.559,99.06 C354.538,114.006 369.096,122.212 388.965,123.195 C389.598,112.619 389.056,100.868 389.236,89.84 C381.64,89.21 372.877,89.747 364.829,89.569 C364.829,80.258 364.829,70.948 364.829,61.637 C374.322,61.637 382.444,61.637 391.405,61.637 C405.78,61.637 416.502,61.76 421.507,71.942 C427.435,84 424.49,108.83 424.49,125.908 C424.49,132.356 425.451,140.346 424.219,144.891 C421.561,154.702 405.632,158.574 393.575,159.536 C378.621,160.728 365.082,157.797 355.066,153.569 C334.566,144.917 318.718,128.103 311.405,106.925 C302.368,80.754 310.715,52.655 323.338,36.687 C337.587,18.664 358.217,7.63 389.237,6.585 Z" id="Shape"></path>
                <path d="M480.355,9.026 C480.355,59.647 480.355,110.269 480.355,160.89 C466.886,160.89 453.417,160.89 439.949,160.89 C440.13,110.358 439.588,59.105 440.22,9.026 C453.599,9.026 466.978,9.026 480.355,9.026 Z" id="Shape"></path>
                <path d="M214.051,52.958 C225.05,52.575 234.25,58.291 238.729,64.348 C243.072,70.22 245.243,79.929 242.526,88.213 C238.888,99.302 228.579,106.994 216.221,107.467 C200.878,108.055 184.553,96.819 186.39,77.094 C187.104,69.427 190.976,64.132 195.339,60.28 C199.645,56.478 205.16,53.268 214.051,52.958 Z" id="Shape"></path>
            </g>
        </g>
    </g>
</svg>