<?xml version="1.0" encoding="UTF-8"?>
<svg width="297" height="210" version="1.1" viewBox="0 0 297 210" xmlns="http://www.w3.org/2000/svg">
 <g id="text" transform="translate(0-87)" fill="#0634ba">
  <path transform="matrix(.26458 0 0 .26458 23.939 82.152)" d="m644.96 362.51h-0.8138q-2.5228-0.73242-6.5918-1.4648-4.069-0.8138-7.1614-0.8138-9.847 0-14.323 4.3945-4.3945 4.3132-4.3945 15.706v3.0924h27.588v12.858h-27.1v78.044h-15.299v-78.044h-10.335v-12.858h10.335v-3.0111q0-16.195 8.0566-24.821 8.0566-8.7077 23.275-8.7077 5.127 0 9.196 0.48828 4.1504 0.48828 7.5684 1.1393z"/>
  <path transform="matrix(.029849 0 0 .024306 185.26 156.63)" d="m1000.6 341.07-23.031 9.5938 0.094 77.031-50.156-35.688-23.875 7.4688 5.5938 30.5 68.5 43.688 0.031 36.594-28.156-18.562-19.719 15.375-3.6562 24.75 38.438 14.688-51.219 29.562 6.5-40.625-23.25-9.2188-23.188 9.4062 2 33.656-31.656-18.312-3.5938-81.188-23.58-20.1-18.4 16.94 5.84 61.28-66.66-38.59-19.84 15.15-3.1875 24.75 66.75 38.438-56 25.594-5.4688 24.406 29.219 10.406 72.094-37.5 31.688 18.281-30.16 15.09 3.4688 24.781 19.594 15.531 31.938-25.938v59.125l-31.938-25.938-19.594 15.531-3.4688 24.75 30.156 15.125-31.688 18.25-72.094-37.469-29.219 10.406 5.4688 24.406 56 25.594-66.75 38.438 3.1875 24.75 19.844 15.156 66.656-38.625-5.8438 61.281 18.406 16.969 23.625-20.094 3.5938-81.188 31.656-18.312-2 33.656 23.188 9.4062 23.25-9.2188-6.5-40.625 51.219 29.562-38.438 14.688 3.6562 24.75 19.719 15.375 28.156-18.562-0.031 36.594-68.5 43.688-5.5938 30.5 23.875 7.4688 50.156-35.688-0.094 77.031 23.031 9.5938 23.031-9.5938-0.094-77.031 50.156 35.688 23.875-7.4688-5.5938-30.5-68.5-43.688-0.031-36.594 28.156 18.562 19.719-15.375 3.6562-24.75-38.437-14.688 51.219-29.562-6.5 40.625 23.25 9.2188 23.188-9.4062-2-33.656 31.656 18.312 3.5938 81.188 23.625 20.094 18.406-16.969-5.8437-61.281 66.656 38.625 19.844-15.156 3.1875-24.75-66.75-38.438 56-25.594 5.4688-24.406-29.3-10.4-72.094 37.469-31.687-18.25 30.156-15.125-3.4688-24.75-19.594-15.531-31.938 25.938v-59.125l31.938 25.938 19.594-15.531 3.4688-24.781-30.156-15.094 31.687-18.281 72.094 37.5 29.219-10.406-5.4688-24.406-56-25.594 66.75-38.438-3.1875-24.75-19.844-15.156-66.656 38.594 5.8437-61.281-18.406-16.938-23.625 20.094-3.5938 81.188-31.656 18.312 2-33.656-23.188-9.4062-23.25 9.2188 6.5 40.625-51.219-29.562 38.437-14.688-3.6562-24.75-19.719-15.375-28.156 18.562 0.031-36.594 68.5-43.688 5.5938-30.5-23.875-7.4688-50.156 35.688 0.094-77.031-23.031-9.5938zm0 224.16 88.906 51.312v102.66l-88.906 51.344-88.906-51.344v-102.66z" stroke="#00f" stroke-width="6"/>
  <path transform="matrix(.26458 0 0 .26458 23.939 82.152)" d="m234.63 400.11h-0.8138q-3.418-0.8138-6.6732-1.1393-3.1738-0.4069-7.5684-0.4069-7.0801 0-13.672 3.1738-6.5918 3.0924-12.695 8.0566v64.535h-15.299v-90.902h15.299v13.428q9.1146-7.3242 16.032-10.335 6.9987-3.0924 14.242-3.0924 3.9876 0 5.778 0.24414 1.7904 0.16276 5.3711 0.73242z"/>
  <path transform="matrix(.26458 0 0 .26458 23.939 82.152)" d="m300.16 400.11h-0.8138q-3.418-0.8138-6.6732-1.1393-3.1738-0.4069-7.5684-0.4069-7.0801 0-13.672 3.1738-6.5918 3.0924-12.695 8.0566v64.535h-15.299v-90.902h15.299v13.428q9.1146-7.3242 16.032-10.335 6.9987-3.0924 14.242-3.0924 3.9876 0 5.778 0.24414 1.7904 0.16276 5.3711 0.73242z"/>
  <path transform="matrix(.26458 0 0 .26458 23.939 82.152)" d="m385.06 430.46h-66.976q0 8.3822 2.5228 14.648 2.5228 6.1849 6.9173 10.173 4.2318 3.9062 10.01 5.8594 5.8594 1.9531 12.858 1.9531 9.2774 0 18.636-3.6621 9.4401-3.7435 13.428-7.3242h0.8138v16.683q-7.7311 3.2552-15.788 5.4525-8.0566 2.1973-16.927 2.1973-22.624 0-35.319-12.207-12.695-12.288-12.695-34.831 0-22.298 12.126-35.4 12.207-13.102 32.064-13.102 18.392 0 28.32 10.742 10.01 10.742 10.01 30.518zm-14.893-11.719q-0.0814-12.044-6.1035-18.636-5.9408-6.5918-18.148-6.5918-12.288 0-19.613 7.2428-7.2428 7.2428-8.2194 17.985z"/>
  <path transform="matrix(.26458 0 0 .26458 23.939 82.152)" d="m476.23 474.33h-15.299v-9.5215q-6.5918 5.6966-13.753 8.8704t-15.544 3.1738q-16.276 0-25.879-12.533-9.5215-12.533-9.5215-34.749 0-11.556 3.2552-20.589 3.3366-9.0332 8.9518-15.381 5.5339-6.1849 12.858-9.4401 7.4056-3.2552 15.299-3.2552 7.1615 0 12.695 1.5462 5.5338 1.4648 11.637 4.6387v-39.388h15.299zm-15.299-22.38v-52.165q-6.1849-2.7669-11.068-3.8249t-10.661-1.0579q-12.858 0-20.02 8.9518t-7.1615 25.391q0 16.195 5.5338 24.658 5.5339 8.3822 17.741 8.3822 6.5104 0 13.184-2.8483 6.6732-2.9297 12.451-7.487z"/>
  <path transform="matrix(.26458 0 0 .26458 23.939 82.152)" d="m578.05 428.92q0 22.217-11.393 35.075-11.393 12.858-30.518 12.858-19.287 0-30.68-12.858-11.312-12.858-11.312-35.075 0-22.217 11.312-35.075 11.393-12.939 30.68-12.939 19.124 0 30.518 12.939 11.393 12.858 11.393 35.075zm-15.788 0q0-17.66-6.9173-26.204-6.9173-8.6263-19.206-8.6263-12.451 0-19.368 8.6263-6.8359 8.5449-6.8359 26.204 0 17.09 6.9173 25.96 6.9173 8.7891 19.287 8.7891 12.207 0 19.124-8.7077 6.9987-8.7891 6.9987-26.042z"/>
  <path transform="matrix(.26458 0 0 .26458 23.939 82.152)" d="m705.61 400.11h-0.8138q-3.418-0.8138-6.6732-1.1393-3.1738-0.4069-7.5684-0.4069-7.0801 0-13.672 3.1738-6.5918 3.0924-12.695 8.0566v64.535h-15.299v-90.902h15.299v13.428q9.1146-7.3242 16.032-10.335 6.9987-3.0924 14.242-3.0924 3.9876 0 5.778 0.24414 1.7904 0.16276 5.3711 0.73242z"/>
  <path transform="translate(2.4054 -4.009)" d="m62.955 166.5-18.06 23.309-17.033 21.981 5.1134-0.0123 9.4397-12.564h16.74v10.677l0.02532-0.0253v1.9239h3.7755v-20.816zm-3.8008 11.109v17.805h-13.796l2.5399-3.2773z" color="#000000" color-rendering="auto" dominant-baseline="auto" image-rendering="auto" shape-rendering="auto" solid-color="#000000" style="font-feature-settings:normal;font-variant-alternates:normal;font-variant-caps:normal;font-variant-ligatures:normal;font-variant-numeric:normal;font-variant-position:normal;isolation:auto;mix-blend-mode:normal;shape-padding:0;text-decoration-color:#000000;text-decoration-line:none;text-decoration-style:solid;text-indent:0;text-orientation:mixed;text-transform:none;white-space:normal"/>
  <path transform="matrix(.26458 0 0 .26458 23.939 82.152)" d="m930.11 428.92q0 22.217-11.393 35.075-11.393 12.858-30.518 12.858-19.287 0-30.68-12.858-11.312-12.858-11.312-35.075 0-22.217 11.312-35.075 11.393-12.939 30.68-12.939 19.124 0 30.518 12.939 11.393 12.858 11.393 35.075zm-15.788 0q0-17.66-6.9173-26.204-6.9173-8.6263-19.206-8.6263-12.451 0-19.368 8.6263-6.8359 8.5449-6.8359 26.204 0 17.09 6.9173 25.96 6.9173 8.7891 19.287 8.7891 12.207 0 19.124-8.7077 6.9987-8.7891 6.9987-26.042z"/>
  <path transform="matrix(.26458 0 0 .26458 23.939 82.152)" d="m828.28 463.99q0 23.112-10.498 33.936t-32.308 10.824q-7.2428 0-14.16-1.0579-6.8359-0.97656-13.509-2.8483v-15.625h0.8138q3.7435 1.4648 11.882 3.5807 8.138 2.1973 16.276 2.1973 7.8125 0 12.939-1.8718 5.127-1.8717 7.9753-5.2083 2.8483-3.1738 4.069-7.6497 1.2207-4.4759 1.2207-10.01v-8.3008q-6.9173 5.5338-13.265 8.3008-6.2663 2.6856-16.032 2.6856-16.276 0-25.879-11.719-9.5215-11.8-9.5215-33.203 0-11.719 3.2552-20.182 3.3366-8.5449 9.0332-14.73 5.2897-5.778 12.858-8.9518 7.5684-3.2552 15.055-3.2552 7.8939 0 13.184 1.6276 5.3711 1.5462 11.312 4.8014l0.97656-3.9062h14.323zm-15.299-14.648v-49.561q-6.1035-2.7669-11.393-3.9062-5.2083-1.2207-10.417-1.2207-12.614 0-19.857 8.4635t-7.2428 24.577q0 15.299 5.3711 23.193 5.3711 7.8939 17.822 7.8939 6.6732 0 13.346-2.5228 6.7546-2.6042 12.37-6.9173z"/>
  <path transform="matrix(.26458 0 0 .26458 23.939 82.152)" d="m730.85 368.21m-0.97656 106.12h-15.299v-90.902h15.299z"/>
 </g>
 <path transform="translate(2.4054 -91.009)" d="m43.051 158.27v0.02739c-13.536-0.10258-26.152 6.9114-33.088 18.486-7.0367 11.742-7.1373 26.36-0.26355 38.197 6.8633 11.819 19.614 19.052 33.351 18.948v0.01706h206.49v-0.03153c13.558 0.11578 26.202-6.908 33.143-18.515 7.0698-11.823 7.109-26.543 0.10387-38.404-6.9124-11.704-19.609-18.821-33.247-18.704v-0.02016h-206.49zm0 5.6746v0.00103h206.45c11.675-0.13015 22.523 5.9379 28.419 15.922 5.9612 10.094 5.9266 22.571-0.08992 32.633-6.0165 10.062-17.07 16.103-28.889 15.77h-205.89v0.00931c-11.745 0.10488-22.617-6.0665-28.465-16.136-5.8493-10.073-5.7635-22.462 0.22479-32.455 5.9102-9.8625 16.668-15.846 28.24-15.743z" color="#000000" color-rendering="auto" dominant-baseline="auto" fill="#f00" fill-rule="evenodd" image-rendering="auto" shape-rendering="auto" solid-color="#000000" style="font-feature-settings:normal;font-variant-alternates:normal;font-variant-caps:normal;font-variant-ligatures:normal;font-variant-numeric:normal;font-variant-position:normal;isolation:auto;mix-blend-mode:normal;shape-padding:0;text-decoration-color:#000000;text-decoration-line:none;text-decoration-style:solid;text-indent:0;text-orientation:mixed;text-transform:none;white-space:normal"/>
</svg>
